<?xml version="1.0" standalone="no"?>
<!DOCTYPE svg PUBLIC "-//W3C//DTD SVG 20010904//EN"
 "http://www.w3.org/TR/2001/REC-SVG-20010904/DTD/svg10.dtd">
<svg version="1.0" xmlns="http://www.w3.org/2000/svg"
 width="1280.000000pt" height="720.000000pt" viewBox="0 0 1280.000000 720.000000"
 preserveAspectRatio="xMidYMid meet">

<g transform="translate(0.000000,720.000000) scale(0.100000,-0.100000)"
fill="#000000" stroke="none">
<path d="M5430 5252 c-245 -71 -430 -172 -605 -333 -204 -186 -365 -297 -616
-423 -157 -79 -391 -176 -542 -226 -38 -12 -66 -24 -64 -26 7 -7 288 93 430
153 329 138 555 275 792 483 256 224 390 299 665 375 47 13 74 24 60 24 -14 0
-68 -12 -120 -27z"/>
<path d="M6260 5263 c-86 -4 -120 -10 -120 -22 0 -5 30 -33 68 -63 37 -30 108
-92 157 -137 145 -133 122 -127 440 -121 375 7 701 6 895 -2 l165 -7 -65 30
c-106 49 -374 153 -546 212 -142 49 -182 58 -330 76 -152 19 -518 44 -569 39
-11 -1 -54 -3 -95 -5z"/>
<path d="M5644 5195 c-79 -14 -264 -69 -306 -91 -16 -8 -28 -19 -28 -25 0 -6
24 -37 53 -68 29 -32 70 -90 91 -129 l37 -73 47 6 c26 2 191 9 367 15 176 6
343 13 372 16 l52 5 -31 52 c-47 76 -182 207 -254 245 -114 59 -247 75 -400
47z"/>
<path d="M5112 4998 c-99 -55 -204 -144 -236 -198 -18 -32 -18 -32 2 -26 53
17 154 27 335 33 173 5 197 8 197 22 0 23 -96 166 -132 196 -16 14 -39 25 -51
25 -12 0 -64 -24 -115 -52z"/>
<path d="M7223 4871 c-193 -6 -279 -21 -121 -21 173 0 557 -46 904 -109 176
-32 231 -53 342 -136 76 -55 180 -159 222 -221 17 -24 33 -44 35 -44 3 0 -32
70 -76 156 -70 133 -80 158 -68 170 19 18 169 34 326 34 123 0 230 -16 311
-46 77 -29 55 -8 -25 25 -186 74 -450 123 -958 176 -168 18 -595 26 -892 16z"/>
<path d="M5250 4729 c-100 -14 -170 -47 -231 -108 -70 -70 -107 -147 -153
-319 -78 -290 -99 -423 -77 -500 l10 -33 -42 5 c-128 17 -330 37 -334 33 -2
-3 36 -10 84 -17 271 -38 300 -45 336 -77 55 -48 97 -58 227 -55 63 2 144 3
180 3 565 -6 908 -7 840 -1 l-85 6 78 2 77 2 0 38 c0 20 10 79 22 130 19 78
25 92 42 93 18 1 19 2 3 6 -15 4 -17 11 -11 36 9 44 12 47 42 48 24 1 22 3
-14 14 -8 2 -1 44 22 132 18 70 33 143 34 161 0 52 -28 100 -71 123 -86 44
-304 50 -392 11 -82 -36 -153 -119 -181 -209 -7 -23 -7 -23 114 -23 l120 0 12
28 c21 48 49 72 85 72 46 0 66 -32 52 -83 -13 -50 -35 -62 -164 -93 -61 -14
-138 -39 -171 -55 -71 -33 -164 -41 -164 -14 0 14 -28 15 -215 13 -117 -1
-217 1 -220 4 -4 3 10 68 30 145 71 274 93 317 162 311 52 -4 60 -23 45 -106
-6 -38 -14 -76 -18 -85 -6 -15 7 -17 129 -17 75 0 138 4 141 8 2 4 10 45 16
90 32 237 -78 323 -360 281z m-5 -721 c-4 -18 -8 -33 -9 -34 -5 -4 -161 -22
-164 -19 -2 2 -1 22 3 44 l7 41 85 0 85 0 -7 -32z m365 28 c0 -3 -9 -21 -21
-40 -17 -30 -27 -36 -55 -36 -22 0 -32 4 -29 13 24 68 23 67 65 67 22 0 40 -2
40 -4z m366 -48 l-12 -43 -70 4 c-38 1 -71 5 -73 7 -7 6 23 36 54 56 17 10 49
18 72 18 l42 0 -13 -42z m-766 -74 c0 -27 -56 -74 -89 -74 -34 0 -61 30 -61
67 0 22 4 23 75 23 62 0 75 -3 75 -16z m333 -73 c-4 -47 -1 -92 5 -111 l11
-31 -52 5 c-29 3 -78 8 -110 12 l-59 6 39 32 c21 19 55 63 77 100 33 56 43 66
66 66 l28 0 -5 -79z m402 50 c-29 -57 -89 -78 -127 -44 -18 16 -24 53 -11 66
3 4 39 7 80 7 l74 0 -16 -29z m-33 -183 c-4 -39 -13 -44 -59 -32 -20 6 -19 8
20 39 23 17 42 32 43 31 1 -1 -1 -18 -4 -38z"/>
<path d="M7699 4647 c-59 -39 -49 -99 29 -167 51 -45 107 -64 170 -57 61 7 85
32 79 81 -7 48 -50 95 -120 128 -80 39 -117 43 -158 15z"/>
<path d="M8080 4663 c-87 -33 -25 -195 100 -259 42 -21 130 -25 153 -5 21 17
22 82 2 120 -18 35 -94 104 -138 124 -38 18 -96 28 -117 20z"/>
<path d="M8655 4661 c-60 -4 -116 -10 -122 -14 -22 -14 -14 -50 28 -127 56
-102 105 -168 141 -186 42 -22 557 -42 570 -22 17 26 -27 193 -67 254 -22 34
-79 58 -193 83 -94 22 -150 23 -357 12z"/>
<path d="M7874 4647 c133 -85 161 -142 103 -206 -12 -13 -15 -21 -7 -16 37 20
50 40 50 74 0 56 -40 105 -117 145 -37 18 -57 21 -29 3z"/>
<path d="M8302 4584 c53 -55 80 -109 72 -145 -5 -23 -5 -23 10 -5 9 11 16 29
16 41 0 32 -42 86 -96 124 l-49 34 47 -49z"/>
<path d="M9246 4551 c-8 -13 44 -139 76 -187 31 -45 52 -45 45 0 -12 76 -103
216 -121 187z"/>
<path d="M6840 4478 c-38 -11 -126 -73 -134 -95 -3 -7 -10 -13 -15 -13 -6 0
-4 19 4 48 8 26 15 48 15 50 0 1 -57 1 -127 0 l-128 -3 -97 -380 c-53 -209
-97 -388 -97 -397 -1 -16 12 -18 129 -18 l129 0 10 38 c6 20 31 120 56 222 54
217 58 230 93 262 36 33 83 48 152 48 l56 0 23 98 c12 53 25 104 27 114 4 14
10 15 42 6 127 -34 207 -173 219 -384 10 -173 -26 -345 -93 -445 -45 -67 -82
-98 -148 -122 l-51 -18 61 4 c144 11 252 116 299 293 26 96 31 257 10 350 -44
197 -127 298 -278 336 -80 20 -106 21 -157 6z"/>
<path d="M7428 3822 c2 -64 5 -118 7 -120 1 -1 69 -9 151 -17 601 -58 1559
-42 1803 31 56 16 111 60 111 89 0 8 -6 31 -14 49 l-14 34 -39 -18 c-46 -23
-151 -45 -298 -62 -143 -17 -686 -16 -945 1 -214 14 -243 22 -297 84 l-30 34
-219 6 -220 6 4 -117z"/>
<path d="M7312 3803 c-16 -80 -71 -189 -119 -235 -21 -21 -68 -54 -103 -74
l-65 -35 131 6 c72 3 146 10 165 15 18 6 59 35 91 67 64 63 62 71 -17 72 -22
1 -45 5 -52 9 -8 5 -13 46 -15 122 l-3 115 -13 -62z"/>
<path d="M8965 3599 c-60 -4 -220 -7 -354 -8 l-243 -1 47 -39 c174 -144 382
-154 578 -27 49 31 95 73 86 79 -2 1 -53 -1 -114 -4z"/>
<path d="M6141 2986 l-114 -464 -126 -4 c-132 -5 -154 -11 -228 -60 -76 -51
-114 -124 -132 -252 -17 -118 -75 -176 -177 -176 -66 0 -126 36 -153 93 -17
35 -21 62 -21 139 l0 96 48 16 c100 35 186 125 217 230 19 63 21 286 3 304 -7
7 -36 12 -65 12 l-53 0 0 116 c0 143 -13 174 -72 174 -48 0 -58 -29 -58 -168
l0 -123 -87 3 -88 3 -3 125 c-2 98 -6 128 -19 142 -24 27 -68 23 -92 -8 -19
-24 -21 -40 -21 -145 l0 -119 -53 0 c-29 0 -58 -5 -65 -12 -17 -17 -16 -229 1
-295 28 -106 118 -204 220 -239 l45 -15 4 -112 c3 -93 9 -121 30 -167 33 -73
75 -119 140 -156 48 -26 62 -29 143 -29 78 0 97 4 140 27 101 54 162 146 172
262 8 84 42 147 98 179 13 8 105 14 259 17 l240 5 49 196 49 196 106 6 c127 6
187 23 258 72 101 70 163 192 172 337 6 105 -11 161 -63 207 -49 43 -107 51
-363 51 l-227 0 -114 -464z m459 244 c43 -43 15 -168 -49 -223 -25 -21 -43
-27 -80 -27 l-48 0 31 135 31 135 48 0 c34 0 53 -6 67 -20z"/>
<path d="M7031 3413 c-23 -87 -251 -1016 -251 -1024 0 -5 58 -9 129 -9 115 0
130 2 135 18 11 40 256 1038 256 1045 0 4 -58 7 -130 7 l-129 0 -10 -37z"/>
<path d="M8242 3171 c-145 -50 -266 -283 -279 -536 -4 -91 -2 -104 19 -145 28
-54 69 -80 140 -87 65 -7 109 10 168 64 32 28 41 33 37 18 -3 -11 -14 -51 -23
-90 -22 -86 -55 -125 -108 -125 -35 0 -72 32 -60 52 3 5 -50 7 -118 6 l-123
-3 -3 -39 c-2 -22 4 -59 13 -83 24 -62 72 -85 191 -91 224 -12 370 56 434 200
16 37 220 831 220 858 0 6 -47 10 -125 10 l-124 0 -10 -37 c-6 -21 -11 -45
-11 -53 -1 -8 -12 6 -25 31 -37 71 -106 87 -213 50z m176 -193 c19 -19 14 -95
-13 -198 -29 -106 -48 -144 -87 -173 -32 -24 -73 -17 -83 13 -9 27 11 146 37
234 33 105 104 166 146 124z"/>
<path d="M7266 2863 c-85 -342 -93 -405 -59 -451 28 -37 85 -55 156 -48 65 6
147 38 173 67 25 28 34 23 23 -13 -5 -18 -9 -34 -9 -36 0 -1 57 -1 127 0 l127
3 98 390 c53 215 98 393 98 398 0 4 -58 7 -130 7 l-129 0 -10 -37 c-6 -21 -38
-149 -72 -285 -50 -203 -66 -252 -87 -273 -28 -28 -73 -33 -92 -10 -16 19 -15
25 63 343 l64 262 -131 0 -132 0 -78 -317z"/>
</g>
</svg>
